<?xml version="1.0" encoding="utf-8"?>
<!-- Generator: Adobe Illustrator 18.0.0, SVG Export Plug-In . SVG Version: 6.00 Build 0)  -->
<!DOCTYPE svg PUBLIC "-//W3C//DTD SVG 1.1//EN" "http://www.w3.org/Graphics/SVG/1.1/DTD/svg11.dtd">
<svg version="1.1" id="Layer_1" xmlns="http://www.w3.org/2000/svg" xmlns:xlink="http://www.w3.org/1999/xlink" x="0px" y="0px"
	 width="568px" height="129.1px" viewBox="66 0 568 129.1" enable-background="new 66 0 568 129.1" xml:space="preserve">
<g>
	<g>
		<path fill="#9FBFCF" d="M311.3,44.5c-2,5.3-5.8,15.8-11.6,31.6c-2-5.3-5.8-15.9-11.6-31.6c-1.1,0-3.3,0-6.5,0
			c2.5,6.8,7.4,20.4,14.7,40.7c1.1,0,3.3,0,6.6,0c2.5-6.8,7.4-20.4,14.7-40.7C316.8,44.5,314.7,44.5,311.3,44.5z"/>
		<path fill="#9FBFCF" d="M339.6,85.2c0-6.8,0-20.3,0-40.7c-1.1,0-3.3,0-6.6,0c0,6.7,0,20.2,0,40.7
			C334.1,85.2,336.2,85.2,339.6,85.2L339.6,85.2z M336.2,34.5c0.9,0,1.7-0.3,2.3-1c0.6-0.6,1-1.4,1-2.3c0-0.9-0.3-1.6-1-2.3
			c-0.6-0.6-1.4-1-2.3-1s-1.8,0.3-2.4,1c-0.6,0.6-0.9,1.4-0.9,2.3s0.3,1.7,0.9,2.3C334.5,34.1,335.3,34.5,336.2,34.5z"/>
		<path fill="#9FBFCF" d="M356.7,64.9c0,3.3,0,10.1,0,20.2c1.1,0,3.3,0,6.6,0c0-3.3,0-10.1,0-20.2c0-3.8,1.4-7.1,4.1-9.8
			c2.6-2.8,5.9-4.1,9.7-4.1c0-1.4,0-3.5,0-6.5c-5.7,0-10.4,2-14.4,6S356.7,59.2,356.7,64.9z"/>
		<path fill="#9FBFCF" d="M401.5,51c2.3,0,6.9,0,13.8,0c0-1,0-3.2,0-6.5c-2.2,0-6.9,0-13.8,0c0-4.2,0-12.6,0-25.1
			c-1.1,0-3.3,0-6.6,0c0,7.6,0,22.7,0,45.4c0,5.7,2,10.4,6,14.4c4,4,8.8,6,14.4,6c0-1.4,0-3.7,0-6.6c-3.8,0-7.1-1.3-9.8-3.9
			c-2.7-2.7-4.1-6-4.1-9.8c0,0,0,0,0.1,0C401.5,62.4,401.5,57.8,401.5,51z"/>
		<path fill="#9FBFCF" d="M458.4,44.5c0,4.1,0,12.2,0,24.4c0,2.7-1,4.9-2.9,6.8c-1.9,1.9-4.2,2.9-6.9,2.9c-2.6,0-4.9-1-6.9-2.9
			c-1.9-1.8-2.9-4.1-2.9-6.8c0-5.4,0-13.6,0-24.4c-1.1,0-3.3,0-6.5,0c0,4.1,0,12.2,0,24.4c0,4.5,1.6,8.4,4.8,11.5
			c3.2,3.2,7,4.8,11.5,4.8c4.5,0,8.4-1.6,11.6-4.8c3.3-3.1,4.9-6.9,4.9-11.5c0-5.4,0-13.6,0-24.4C464,44.5,461.8,44.5,458.4,44.5z"
			/>
		<path fill="#9FBFCF" d="M495.7,44.5c-5.6,0-10.4,2-14.3,6s-6,8.8-6,14.4c0,5.6,2,10.4,6,14.4c4,4,8.8,6,14.3,6
			c4.5,0,11.3,0,20.5,0c0-6.8,0-20.4,0-40.7C512.7,44.5,505.9,44.5,495.7,44.5L495.7,44.5z M509.6,78.6c-2.3,0-6.9,0-13.9,0
			c-3.8,0-7-1.4-9.7-4.1c-2.7-2.7-4.1-5.9-4.1-9.7s1.4-7.1,4.1-9.8c2.7-2.8,5.9-4.1,9.7-4.1c3.1,0,7.7,0,13.9,0
			C509.6,55.6,509.6,64.8,509.6,78.6z"/>
		<path fill="#9FBFCF" d="M539.2,64.7c0-7.6,0-22.7,0.1-45.4c-1.1,0-3.3,0-6.6,0c0,7.6,0,22.7,0,45.4c0,5.7,2,10.4,6,14.4
			c4,4,8.8,6,14.4,6c0-1.4,0-3.7,0-6.6c-3.8,0-7.1-1.3-9.8-3.9C540.6,71.9,539.2,68.7,539.2,64.7z"/>
		<path fill="#059552" d="M581.6,85.2c0-6.8,0-20.3,0-40.7c-1.1,0-3.3,0-6.6,0c0,6.7,0,20.2,0,40.7
			C576.1,85.2,578.4,85.2,581.6,85.2L581.6,85.2z M578.4,34.5c0.9,0,1.7-0.3,2.3-1c0.6-0.6,1-1.4,1-2.3c0-0.9-0.3-1.6-1-2.3
			c-0.6-0.6-1.4-1-2.3-1s-1.8,0.3-2.4,1c-0.6,0.6-0.9,1.4-0.9,2.3s0.3,1.7,0.9,2.3C576.6,34.1,577.4,34.5,578.4,34.5L578.4,34.5z
			 M625,26c0-1.1,0-3.3,0-6.6c-5.7,0-10.4,2-14.4,6.1c-4,4-6,8.8-6,14.3c0,10,0,25.2,0,45.4c1.1,0,3.3,0,6.6,0c0-5.7,0-17.1,0-34.2
			c2.3,0,6.9,0,13.8,0c0-1,0-3.2,0-6.5c-2.2,0-6.9,0-13.8,0c0-0.8,0-2.4,0-4.8c0,0,0,0-0.1,0c0-3.8,1.4-7,4.1-9.7
			C617.9,27.4,621.2,26,625,26z"/>
	</g>
	<g>
		<polygon fill="none" stroke="#9FBFCF" stroke-width="3.6451" stroke-miterlimit="22.9256" points="105.5,48.1 228.8,54.5 
			228.8,104.6 105.5,111.1 		"/>
		<polygon fill="none" stroke="#9FBFCF" stroke-width="3.6451" stroke-miterlimit="22.9256" points="250.4,39.2 127.1,32.7 
			127.1,95.8 250.4,89.2 		"/>
		<polygon fill="none" stroke="#9FBFCF" stroke-width="3.6454" stroke-miterlimit="22.9256" points="75,18 198.3,24.6 198.3,74.6 
			75,81.1 		"/>
		<polygon fill="none" stroke="#059552" stroke-width="3.6454" stroke-miterlimit="22.9256" points="127.1,49.2 198.3,53 
			198.3,74.6 127.1,78.3 		"/>
	</g>
</g>
</svg>
